<?xml version="1.0" encoding="UTF-8"?>
<!--Generator: Apple Native CoreSVG 326-->
<!DOCTYPE svg
PUBLIC "-//W3C//DTD SVG 1.1//EN"
       "http://www.w3.org/Graphics/SVG/1.1/DTD/svg11.dtd">
<svg version="1.1" xmlns="http://www.w3.org/2000/svg" xmlns:xlink="http://www.w3.org/1999/xlink" viewBox="0 0 9.32129 8.47168">
 <g>
  <rect height="8.47168" opacity="0" width="9.32129" x="0" y="0"/>
  <path d="M7.22656 1.28906L7.22656 1.43555L6.55273 1.43555L6.55273 1.23535C6.55273 0.947266 6.3916 0.791016 6.09863 0.791016L2.65625 0.791016C2.36328 0.791016 2.20215 0.947266 2.20215 1.23535L2.20215 1.43555L1.52344 1.43555L1.52344 1.28906C1.52344 0.50293 1.96777 0.15625 2.66602 0.15625L6.08887 0.15625C6.83105 0.15625 7.22656 0.50293 7.22656 1.28906Z" fill="white" fill-opacity="0.85"/>
  <path d="M8.75488 2.60254L8.75488 6.18164C8.75488 6.95312 8.33984 7.34863 7.56836 7.34863L7.19727 7.34863L7.19727 6.68945L7.57812 6.68945C7.88086 6.68945 8.04688 6.52344 8.04688 6.21582L8.04688 2.56836C8.04688 2.26562 7.88086 2.09473 7.57812 2.09473L1.17676 2.09473C0.874023 2.09473 0.703125 2.26562 0.703125 2.56836L0.703125 6.21582C0.703125 6.52344 0.874023 6.68945 1.17676 6.68945L1.55762 6.68945L1.55762 7.34863L1.18652 7.34863C0.415039 7.34863 0 6.95312 0 6.18164L0 2.60254C0 1.83105 0.458984 1.43555 1.18652 1.43555L7.56836 1.43555C8.33984 1.43555 8.75488 1.83105 8.75488 2.60254ZM7.22656 2.9834C7.22656 3.25195 7.01172 3.47168 6.74316 3.47168C6.47461 3.47168 6.25977 3.25195 6.25977 2.9834C6.25977 2.71973 6.47461 2.5 6.74316 2.5C7.01172 2.5 7.22656 2.71973 7.22656 2.9834Z" fill="white" fill-opacity="0.85"/>
  <path d="M2.27051 8.47168L6.48438 8.47168C6.95312 8.47168 7.19727 8.25684 7.19727 7.75879L7.19727 4.58496C7.19727 4.08691 6.95312 3.87207 6.48438 3.87207L2.27051 3.87207C1.83105 3.87207 1.55762 4.08691 1.55762 4.58496L1.55762 7.75879C1.55762 8.25684 1.80176 8.47168 2.27051 8.47168ZM2.5 7.81738C2.34863 7.81738 2.26074 7.73438 2.26074 7.57324L2.26074 4.76562C2.26074 4.60938 2.34863 4.52637 2.5 4.52637L6.25488 4.52637C6.41113 4.52637 6.48926 4.60938 6.48926 4.76562L6.48926 7.57324C6.48926 7.73438 6.41113 7.81738 6.25488 7.81738ZM3.11035 5.77148L5.6543 5.77148C5.80566 5.77148 5.91797 5.6543 5.91797 5.50293C5.91797 5.35645 5.80566 5.24414 5.6543 5.24414L3.11035 5.24414C2.9541 5.24414 2.83691 5.35645 2.83691 5.50293C2.83691 5.6543 2.9541 5.77148 3.11035 5.77148ZM3.11035 7.09961L5.6543 7.09961C5.80566 7.09961 5.91797 6.9873 5.91797 6.84082C5.91797 6.68945 5.80566 6.57227 5.6543 6.57227L3.11035 6.57227C2.9541 6.57227 2.83691 6.68945 2.83691 6.84082C2.83691 6.9873 2.9541 7.09961 3.11035 7.09961Z" fill="white" fill-opacity="0.85"/>
 </g>
</svg>
